<svg width="16" height="19" viewBox="0 0 16 19" fill="none" xmlns="http://www.w3.org/2000/svg">
    <path d="M7.99953 18.0869C9.26096 18.0869 10.2842 17.0797 10.2842 15.8369H5.71489C5.71489 17.0797 6.73811 18.0869 7.99953 18.0869ZM15.692 12.8237C15.002 12.0938 13.711 10.9959 13.711 7.39941C13.711 4.66777 11.7652 2.48105 9.14168 1.94457V1.21191C9.14168 0.590703 8.63025 0.0869141 7.99953 0.0869141C7.36882 0.0869141 6.85739 0.590703 6.85739 1.21191V1.94457C4.23382 2.48105 2.28811 4.66777 2.28811 7.39941C2.28811 10.9959 0.997036 12.0938 0.307036 12.8237C0.0927507 13.0504 -0.0022493 13.3215 -0.000463589 13.5869C0.00346498 14.1635 0.463108 14.7119 1.14596 14.7119H14.8531C15.536 14.7119 15.996 14.1635 15.9995 13.5869C16.0013 13.3215 15.9063 13.0501 15.692 12.8237Z" fill="#FEFDF9"></path>
</svg>