<svg width="145" height="32" viewBox="0 0 145 32" fill="none" xmlns="http://www.w3.org/2000/svg">
    <path opacity="0.5" d="M16.0001 0V8C11.5824 8 8.00007 11.5823 8.00007 16H0C0 7.16463 7.16093 0 16.0001 0Z" fill="#FBF7EA"></path>
    <path opacity="0.75" d="M16.0001 32V24C11.5824 24 8.00007 20.4177 8.00007 16H0C0 24.8354 7.16093 32 16.0001 32Z" fill="#FBF7EA"></path>
    <path d="M32.0001 16C32.0001 24.8354 24.8392 32 16 32V24C20.4177 24 24.0001 20.4177 24.0001 16C24.0001 11.5823 20.4177 8 16 8V0C24.8392 0 32.0001 7.16463 32.0001 16Z" fill="#FBF7EA"></path>
    <path d="M44.2714 8.43652C42.2056 8.43652 40.5273 9.12514 39.2328 10.5287C37.9647 11.9323 37.3325 13.7234 37.3325 15.9549C37.3325 18.1863 37.9647 19.9511 39.2328 21.3283C40.5273 22.6792 42.2056 23.3678 44.2714 23.3678C46.3373 23.3678 47.9892 22.6792 49.2273 21.302C50.4954 19.9248 51.1276 18.1336 51.1276 15.9285C51.1276 13.7234 50.4954 11.9059 49.2273 10.5287C47.9892 9.12514 46.3373 8.43652 44.2714 8.43652ZM44.2451 21.2456C41.4078 21.2456 39.786 19.1797 39.786 15.9022C39.786 12.6247 41.5207 10.5588 44.2451 10.5588C46.9695 10.5588 48.6779 12.651 48.6779 15.8758C48.6779 19.1007 46.9695 21.2493 44.2451 21.2493V21.2456Z" fill="#FBF7EA"></path>
    <path d="M56.2227 11.6351H56.0572V8.71506H53.6602V23.0932H56.0572V16.4554C56.0572 12.6247 57.6527 10.6981 60.8738 10.6417V8.49304C58.5896 8.49304 57.0205 9.53914 56.219 11.6351H56.2227Z" fill="#FBF7EA"></path>
    <path d="M69.7954 20.3124H65.9948C64.7003 20.3124 64.0682 19.8984 64.0682 19.0743C64.0682 18.3293 64.4821 17.889 65.3062 17.7536C65.9384 17.8928 66.5743 17.9756 67.2592 17.9756C70.4539 17.9756 72.5725 16.0753 72.5725 13.2907C72.5725 11.9398 72.1322 10.8109 71.2517 9.93042C71.5527 9.07623 72.5988 8.49674 73.9234 8.49674V6.51367C71.9666 6.51367 70.3975 7.50709 69.8217 9.04613C69.1331 8.6322 68.2262 8.44029 67.0973 8.44029C65.5018 8.44029 64.2074 8.88056 63.1876 9.76109C62.198 10.6153 61.7013 11.7705 61.7013 13.2042C61.7013 14.9125 62.3899 16.207 63.7671 17.0612V17.2267C62.6382 17.5579 61.8969 18.4648 61.8969 19.5974C61.8969 20.4779 62.4764 21.3058 63.3269 21.5541V21.746C62.006 22.16 61.1519 23.2061 61.1519 24.5569C61.1519 26.7319 63.1349 28.0828 67.2102 28.0828C71.5339 28.0828 74.1228 26.6491 74.1228 23.8947C74.1228 21.6632 72.5273 20.3124 69.7992 20.3124H69.7954ZM67.1538 10.175C69.024 10.175 70.2357 11.3302 70.2357 13.2343C70.2357 15.1383 69.1068 16.2634 67.1538 16.2634C65.2008 16.2634 64.0682 15.1346 64.0682 13.2343C64.0682 11.334 65.2535 10.175 67.1538 10.175ZM67.3194 26.2917C64.6477 26.2917 63.3269 25.5767 63.3269 24.1694C63.3269 22.9314 64.1246 22.2954 65.6938 22.2954H69.5771C71.0372 22.2954 71.7521 22.8448 71.7521 23.9775C71.7521 25.5203 70.2658 26.2917 67.3194 26.2917Z" fill="#FBF7EA"></path>
    <path d="M86.9211 20.1995V13.6444C86.9211 10.3669 84.9681 8.43652 81.3594 8.43652C79.7338 8.43652 78.3866 8.85045 77.3104 9.67453C76.2643 10.4723 75.6848 11.5485 75.5757 12.8994H77.8899C77.9727 11.3566 79.2672 10.3368 81.2503 10.3368C83.4516 10.3368 84.5541 11.3829 84.5541 13.4488V14.5212H80.7272C77.175 14.5212 74.9736 16.1468 74.9736 19.1496C74.9736 21.6557 76.9003 23.3641 79.7639 23.3641C81.9953 23.3641 83.8956 22.2916 84.5278 20.7187H84.6934C84.6934 22.4008 85.4911 23.2512 87.1167 23.2512C87.5307 23.2512 87.9446 23.1948 88.3284 23.0856V21.2418C88.1892 21.2681 87.9973 21.2982 87.8053 21.2982C86.9813 21.2982 86.9248 20.7752 86.9248 20.1957L86.9211 20.1995ZM84.5541 17.0311C84.5541 19.5936 82.8194 21.3848 80.2606 21.3848C78.5259 21.3848 77.4233 20.4478 77.4233 18.8787C77.4233 17.2267 78.5786 16.2597 80.9191 16.2597H84.5541V17.0311Z" fill="#FBF7EA"></path>
    <path d="M98.044 8.43652C95.869 8.43652 94.0779 9.53906 93.1973 11.3829H93.0054V8.71122H90.6084V23.0932H93.0054V15.571C93.0054 12.5682 94.7138 10.5588 97.2463 10.5588C99.504 10.5588 100.633 11.8796 100.633 14.4986V23.0932H103.03V14.2503C103.03 10.698 101.16 8.43652 98.0478 8.43652H98.044Z" fill="#FBF7EA"></path>
    <path d="M107.847 8.71497H105.48V23.0969H107.847V8.71497Z" fill="#FBF7EA"></path>
    <path d="M129.74 10.5588V8.71497H110.466V10.698H118.368L110.492 21.3057V23.0969H129.849V21.1138H121.864L129.74 10.5626V10.5588ZM119.173 21.1101H113.329L121.1 10.698H126.902L119.17 21.1101H119.173Z" fill="#FBF7EA"></path>
    <path d="M141.604 18.7696C141.247 20.3387 139.704 21.4149 137.612 21.4149C134.857 21.4149 133.153 19.5711 133.179 16.4027H143.806C143.862 15.9888 143.889 15.4921 143.889 14.9163C143.889 10.9765 141.522 8.44409 137.529 8.44409C135.49 8.44409 133.838 9.13271 132.6 10.5099C131.362 11.8608 130.756 13.6783 130.756 15.9361C130.756 18.1939 131.388 20.0114 132.63 21.3622C133.868 22.7131 135.52 23.3717 137.559 23.3717C139.268 23.3717 140.698 22.9577 141.853 22.1035C143.038 21.2494 143.753 20.1468 144.001 18.7696H141.604ZM137.503 10.3933C140.062 10.3933 141.522 11.9098 141.522 14.6341H133.206C133.288 12.0716 134.997 10.3933 137.499 10.3933H137.503Z" fill="#FBF7EA"></path>
    <path d="M107.847 3.92102H105.48V6.29167H107.847V3.92102Z" fill="#FBF7EA"></path>
</svg>