<svg width="18" height="18" viewBox="0 0 18 18" fill="none" xmlns="http://www.w3.org/2000/svg">
    <path d="M17.135 11.1858L15.6373 10.321C15.7885 9.50533 15.7885 8.66861 15.6373 7.85299L17.135 6.98814C17.3072 6.88971 17.3846 6.6858 17.3283 6.49596C16.9381 5.24439 16.2737 4.11236 15.4053 3.17017C15.2717 3.02603 15.0537 2.99088 14.885 3.08932L13.3873 3.95416C12.758 3.41275 12.0338 2.99439 11.2498 2.72017V0.994003C11.2498 0.797128 11.1127 0.624862 10.9194 0.582675C9.62912 0.294393 8.30725 0.308456 7.08029 0.582675C6.88693 0.624862 6.74982 0.797128 6.74982 0.994003V2.72369C5.96936 3.00142 5.24514 3.41978 4.61232 3.95767L3.11818 3.09283C2.94592 2.99439 2.73147 3.02603 2.59787 3.17369C1.72951 4.11236 1.06506 5.24439 0.674825 6.49947C0.615059 6.68931 0.695918 6.89322 0.868184 6.99166L2.36584 7.8565C2.21467 8.67213 2.21467 9.50885 2.36584 10.3245L0.868184 11.1893C0.695918 11.2878 0.618575 11.4917 0.674825 11.6815C1.06506 12.9331 1.72951 14.0651 2.59787 15.0073C2.73147 15.1514 2.94943 15.1866 3.11818 15.0881L4.61584 14.2233C5.24514 14.7647 5.96936 15.1831 6.75334 15.4573V17.187C6.75334 17.3838 6.89045 17.5561 7.08381 17.5983C8.37404 17.8866 9.69592 17.8725 10.9229 17.5983C11.1162 17.5561 11.2533 17.3838 11.2533 17.187V15.4573C12.0338 15.1795 12.758 14.7612 13.3908 14.2233L14.8885 15.0881C15.0608 15.1866 15.2752 15.1549 15.4088 15.0073C16.2772 14.0686 16.9416 12.9366 17.3319 11.6815C17.3846 11.4881 17.3072 11.2842 17.135 11.1858V11.1858ZM8.99982 11.8995C7.44943 11.8995 6.18732 10.6374 6.18732 9.08697C6.18732 7.53658 7.44943 6.27447 8.99982 6.27447C10.5502 6.27447 11.8123 7.53658 11.8123 9.08697C11.8123 10.6374 10.5502 11.8995 8.99982 11.8995Z" fill="#FEFDF9"></path>
</svg>